<svg width="21" height="21" viewBox="0 0 21 21" fill="none" xmlns="http://www.w3.org/2000/svg">
<path d="M12.6156 16.1875H16.1781M16.1781 16.1875H19.7406M16.1781 16.1875V12.625M16.1781 16.1875V19.75" stroke="#1E1E1E" stroke-width="1.5" stroke-linecap="round" stroke-linejoin="round"/>
<path d="M0.75 7.1625V1.4625C0.75 1.27353 0.825067 1.09231 0.958686 0.958686C1.09231 0.825067 1.27353 0.75 1.4625 0.75H7.1625C7.35147 0.75 7.53269 0.825067 7.66631 0.958686C7.79993 1.09231 7.875 1.27353 7.875 1.4625V7.1625C7.875 7.35147 7.79993 7.53269 7.66631 7.66631C7.53269 7.79993 7.35147 7.875 7.1625 7.875H1.4625C1.27353 7.875 1.09231 7.79993 0.958686 7.66631C0.825067 7.53269 0.75 7.35147 0.75 7.1625ZM0.75 19.0375V13.3375C0.75 13.1485 0.825067 12.9673 0.958686 12.8337C1.09231 12.7001 1.27353 12.625 1.4625 12.625H7.1625C7.35147 12.625 7.53269 12.7001 7.66631 12.8337C7.79993 12.9673 7.875 13.1485 7.875 13.3375V19.0375C7.875 19.2265 7.79993 19.4077 7.66631 19.5413C7.53269 19.6749 7.35147 19.75 7.1625 19.75H1.4625C1.27353 19.75 1.09231 19.6749 0.958686 19.5413C0.825067 19.4077 0.75 19.2265 0.75 19.0375ZM12.625 7.1625V1.4625C12.625 1.27353 12.7001 1.09231 12.8337 0.958686C12.9673 0.825067 13.1485 0.75 13.3375 0.75H19.0375C19.2265 0.75 19.4077 0.825067 19.5413 0.958686C19.6749 1.09231 19.75 1.27353 19.75 1.4625V7.1625C19.75 7.35147 19.6749 7.53269 19.5413 7.66631C19.4077 7.79993 19.2265 7.875 19.0375 7.875H13.3375C13.1485 7.875 12.9673 7.79993 12.8337 7.66631C12.7001 7.53269 12.625 7.35147 12.625 7.1625Z" stroke="#1E1E1E" stroke-width="1.5"/>
</svg>
