<svg width="21" height="22" viewBox="0 0 21 22" fill="none" xmlns="http://www.w3.org/2000/svg">
<path d="M15.884 9.75C16.465 15.125 18.75 16.75 18.75 16.75H0.75C0.75 16.75 3.75 14.617 3.75 7.15C3.75 5.453 4.382 3.825 5.507 2.625C6.632 1.425 8.16 0.75 9.75 0.75C10.088 0.75 10.4213 0.78 10.75 0.84M11.48 19.75C11.3042 20.0531 11.0518 20.3047 10.7482 20.4795C10.4446 20.6544 10.1004 20.7465 9.75 20.7465C9.39962 20.7465 9.05539 20.6544 8.75177 20.4795C8.44816 20.3047 8.19581 20.0531 8.02 19.75M16.75 6.75C17.5456 6.75 18.3087 6.43393 18.8713 5.87132C19.4339 5.30871 19.75 4.54565 19.75 3.75C19.75 2.95435 19.4339 2.19129 18.8713 1.62868C18.3087 1.06607 17.5456 0.75 16.75 0.75C15.9544 0.75 15.1913 1.06607 14.6287 1.62868C14.0661 2.19129 13.75 2.95435 13.75 3.75C13.75 4.54565 14.0661 5.30871 14.6287 5.87132C15.1913 6.43393 15.9544 6.75 16.75 6.75Z" stroke="#1E1E1E" stroke-width="1.5" stroke-linecap="round" stroke-linejoin="round"/>
</svg>
